{
  "accessors": [
    {
      "bufferView": 2,
      "componentType": 5126,
      "count": 14,
      "max": [
        4.1629247665405273,
        0.12719100713729858,
        1.1006749868392944
      ],
      "min": [
        -3.502979040145874,
        -0.12756800651550293,
        0.84728497266769409
      ],
      "type": "VEC3"
    },
    {
      "bufferView": 0,
      "componentType": 5125,
      "count": 14,
      "max": [
        13
      ],
      "min": [
        0
      ],
      "type": "SCALAR"
    },
    {
      "bufferView": 2,
      "byteOffset": 168,
      "componentType": 5126,
      "count": 1852,
      "max": [
        7.5810189247131348,
        1.0390989780426025,
        3.118649959564209
      ],
      "min": [
        -9.3077096939086914,
        -1.0394760370254517,
        -0.094231002032756805
      ],
      "type": "VEC3"
    },
    {
      "bufferView": 2,
      "byteOffset": 22392,
      "componentType": 5126,
      "count": 1852,
      "max": [
        1,
        0.99989724159240723,
        0.96899938583374023
      ],
      "min": [
        -1,
        -0.99989724159240723,
        -0.96899938583374023
      ],
      "type": "VEC3"
    },
    {
      "bufferView": 3,
      "componentType": 5126,
      "count": 1852,
      "max": [
        0.84823417663574219,
        0.98626136779785156,
        1,
        1
      ],
      "min": [
        -0.67432874441146851,
        -0.99498826265335083,
        -0.99321401119232178,
        -1
      ],
      "type": "VEC4"
    },
    {
      "bufferView": 1,
      "componentType": 5126,
      "count": 1852,
      "max": [
        0.875,
        0.9375
      ],
      "min": [
        0,
        0
      ],
      "type": "VEC2"
    },
    {
      "bufferView": 0,
      "byteOffset": 56,
      "componentType": 5125,
      "count": 2736,
      "max": [
        1823
      ],
      "min": [
        0
      ],
      "type": "SCALAR"
    },
    {
      "bufferView": 2,
      "byteOffset": 44616,
      "componentType": 5126,
      "count": 1152,
      "max": [
        4.9924001693725586,
        0.90048801898956299,
        -0.73067998886108398
      ],
      "min": [
        3.0207200050354004,
        -0.90086597204208374,
        -1.3087760210037231
      ],
      "type": "VEC3"
    },
    {
      "bufferView": 2,
      "byteOffset": 58440,
      "componentType": 5126,
      "count": 1152,
      "max": [
        0.99675983190536499,
        0.99269938468933105,
        0.9734264612197876
      ],
      "min": [
        -0.99675983190536499,
        -0.99269938468933105,
        -0.99915939569473267
      ],
      "type": "VEC3"
    },
    {
      "bufferView": 3,
      "byteOffset": 29632,
      "componentType": 5126,
      "count": 1152,
      "max": [
        0,
        0.74026203155517578,
        0.67054378986358643,
        1
      ],
      "min": [
        -0.99675744771957397,
        -0.74026262760162354,
        -0.080451466143131256,
        -1
      ],
      "type": "VEC4"
    },
    {
      "bufferView": 1,
      "byteOffset": 14816,
      "componentType": 5126,
      "count": 1152,
      "max": [
        0.875,
        1
      ],
      "min": [
        0,
        0
      ],
      "type": "VEC2"
    },
    {
      "bufferView": 0,
      "byteOffset": 11000,
      "componentType": 5125,
      "count": 2172,
      "max": [
        1151
      ],
      "min": [
        0
      ],
      "type": "SCALAR"
    },
    {
      "bufferView": 2,
      "byteOffset": 72264,
      "componentType": 5126,
      "count": 21958,
      "max": [
        6.0295009613037109,
        1.1612659692764282,
        2.4476668834686279
      ],
      "min": [
        -9.5216474533081055,
        -1.1616430282592773,
        -1.9253909587860107
      ],
      "type": "VEC3"
    },
    {
      "bufferView": 2,
      "byteOffset": 335760,
      "componentType": 5126,
      "count": 21958,
      "max": [
        1,
        1,
        1
      ],
      "min": [
        -1,
        -1,
        -1
      ],
      "type": "VEC3"
    },
    {
      "bufferView": 3,
      "byteOffset": 48064,
      "componentType": 5126,
      "count": 21958,
      "max": [
        1,
        1,
        1,
        1
      ],
      "min": [
        -1,
        -0.99999982118606567,
        -1,
        -1
      ],
      "type": "VEC4"
    },
    {
      "bufferView": 1,
      "byteOffset": 24032,
      "componentType": 5126,
      "count": 21958,
      "max": [
        1,
        1
      ],
      "min": [
        0,
        0
      ],
      "type": "VEC2"
    },
    {
      "bufferView": 0,
      "byteOffset": 19688,
      "componentType": 5125,
      "count": 80157,
      "max": [
        21957
      ],
      "min": [
        0
      ],
      "type": "SCALAR"
    },
    {
      "bufferView": 2,
      "byteOffset": 599256,
      "componentType": 5126,
      "count": 40438,
      "max": [
        7.5582342147827148,
        1.3945599794387817,
        3.2851920127868652
      ],
      "min": [
        -10.248712539672852,
        -1.3949359655380249,
        -1.4479010105133057
      ],
      "type": "VEC3"
    },
    {
      "bufferView": 2,
      "byteOffset": 1084512,
      "componentType": 5126,
      "count": 40438,
      "max": [
        1,
        1,
        1
      ],
      "min": [
        -1,
        -1,
        -1
      ],
      "type": "VEC3"
    },
    {
      "bufferView": 3,
      "byteOffset": 399392,
      "componentType": 5126,
      "count": 40438,
      "max": [
        1,
        0.99999558925628662,
        1,
        1
      ],
      "min": [
        -1,
        -1,
        -1,
        -1
      ],
      "type": "VEC4"
    },
    {
      "bufferView": 1,
      "byteOffset": 199696,
      "componentType": 5126,
      "count": 40438,
      "max": [
        1,
        1.0000849962234497
      ],
      "min": [
        0,
        0
      ],
      "type": "VEC2"
    },
    {
      "bufferView": 0,
      "byteOffset": 340316,
      "componentType": 5125,
      "count": 67194,
      "max": [
        40437
      ],
      "min": [
        0
      ],
      "type": "SCALAR"
    },
    {
      "bufferView": 2,
      "byteOffset": 1569768,
      "componentType": 5126,
      "count": 65532,
      "max": [
        7.9779129028320312,
        1.1657320261001587,
        3.0467178821563721
      ],
      "min": [
        -10.340228080749512,
        -1.1649600267410278,
        -0.8101080060005188
      ],
      "type": "VEC3"
    },
    {
      "bufferView": 2,
      "byteOffset": 2356152,
      "componentType": 5126,
      "count": 65532,
      "max": [
        1,
        1,
        1
      ],
      "min": [
        -1,
        -1,
        -1
      ],
      "type": "VEC3"
    },
    {
      "bufferView": 3,
      "byteOffset": 1046400,
      "componentType": 5126,
      "count": 65532,
      "max": [
        1,
        1,
        1,
        1
      ],
      "min": [
        -1,
        -1,
        -1,
        -1
      ],
      "type": "VEC4"
    },
    {
      "bufferView": 1,
      "byteOffset": 523200,
      "componentType": 5126,
      "count": 65532,
      "max": [
        1,
        1
      ],
      "min": [
        0,
        0
      ],
      "type": "VEC2"
    },
    {
      "bufferView": 0,
      "byteOffset": 609092,
      "componentType": 5125,
      "count": 183444,
      "max": [
        65531
      ],
      "min": [
        0
      ],
      "type": "SCALAR"
    },
    {
      "bufferView": 2,
      "byteOffset": 3142536,
      "componentType": 5126,
      "count": 1777,
      "max": [
        4.8405451774597168,
        0.44447401165962219,
        1.610247015953064
      ],
      "min": [
        -0.97289597988128662,
        -0.44492799043655396,
        0.90023702383041382
      ],
      "type": "VEC3"
    },
    {
      "bufferView": 2,
      "byteOffset": 3163860,
      "componentType": 5126,
      "count": 1777,
      "max": [
        0.997153639793396,
        1,
        1
      ],
      "min": [
        -1,
        -1,
        -1
      ],
      "type": "VEC3"
    },
    {
      "bufferView": 3,
      "byteOffset": 2094912,
      "componentType": 5126,
      "count": 1777,
      "max": [
        1,
        1,
        0.0011010547168552876,
        1
      ],
      "min": [
        -1,
        -1,
        -0.0010038716718554497,
        -1
      ],
      "type": "VEC4"
    },
    {
      "bufferView": 1,
      "byteOffset": 1047456,
      "componentType": 5126,
      "count": 1777,
      "max": [
        0.99000000953674316,
        0.62865698337554932
      ],
      "min": [
        0,
        0
      ],
      "type": "VEC2"
    },
    {
      "bufferView": 0,
      "byteOffset": 1342868,
      "componentType": 5125,
      "count": 4869,
      "max": [
        1776
      ],
      "min": [
        0
      ],
      "type": "SCALAR"
    }
  ],
  "asset": {
    "extras": {
      "author": "kikumi (https://sketchfab.com/kikumi)",
      "license": "CC-BY-4.0 (http://creativecommons.org/licenses/by/4.0/)",
      "source": "https://sketchfab.com/3d-models/battle-ship-yamato-ad468cc11703400ab420ad92c641b936",
      "title": "Battle Ship Yamato"
    },
    "generator": "Sketchfab-7.29.0",
    "version": "2.0"
  },
  "bufferViews": [
    {
      "buffer": 0,
      "byteLength": 1362344,
      "byteOffset": 0,
      "name": "floatBufferViews",
      "target": 34963
    },
    {
      "buffer": 0,
      "byteLength": 1061672,
      "byteOffset": 1362344,
      "byteStride": 8,
      "name": "floatBufferViews",
      "target": 34962
    },
    {
      "buffer": 0,
      "byteLength": 3185184,
      "byteOffset": 2424016,
      "byteStride": 12,
      "name": "floatBufferViews",
      "target": 34962
    },
    {
      "buffer": 0,
      "byteLength": 2123344,
      "byteOffset": 5609200,
      "byteStride": 16,
      "name": "floatBufferViews",
      "target": 34962
    }
  ],
  "buffers": [
    {
      "byteLength": 7732544,
      "uri": "scene.bin"
    }
  ],
  "materials": [
    {
      "doubleSided": true,
      "emissiveFactor": [
        0,
        0,
        0
      ],
      "name": "Material",
      "pbrMetallicRoughness": {
        "baseColorFactor": [
          0.80000000000000004,
          0.80000000000000004,
          0.80000000000000004,
          1
        ],
        "metallicFactor": 0,
        "roughnessFactor": 0.76285846125992607
      }
    },
    {
      "doubleSided": true,
      "emissiveFactor": [
        0,
        0,
        0
      ],
      "name": "bottom",
      "pbrMetallicRoughness": {
        "baseColorFactor": [
          0.19711999999999999,
          0.0057419999999999997,
          0.0039589999999999998,
          1
        ],
        "metallicFactor": 0,
        "roughnessFactor": 0.80635083268962915
      }
    },
    {
      "doubleSided": true,
      "emissiveFactor": [
        0,
        0,
        0
      ],
      "name": "upper",
      "pbrMetallicRoughness": {
        "baseColorFactor": [
          0.063132999999999995,
          0.12189899999999999,
          0.36083500000000002,
          1
        ],
        "metallicFactor": 0,
        "roughnessFactor": 1
      }
    }
  ],
  "meshes": [
    {
      "primitives": [
        {
          "attributes": {
            "POSITION": 0
          },
          "indices": 1,
          "material": 1,
          "mode": 1
        }
      ]
    },
    {
      "primitives": [
        {
          "attributes": {
            "NORMAL": 3,
            "POSITION": 2,
            "TANGENT": 4,
            "TEXCOORD_0": 5
          },
          "indices": 6,
          "material": 0,
          "mode": 4
        }
      ]
    },
    {
      "primitives": [
        {
          "attributes": {
            "NORMAL": 8,
            "POSITION": 7,
            "TANGENT": 9,
            "TEXCOORD_0": 10
          },
          "indices": 11,
          "material": 1,
          "mode": 4
        }
      ]
    },
    {
      "primitives": [
        {
          "attributes": {
            "NORMAL": 13,
            "POSITION": 12,
            "TANGENT": 14,
            "TEXCOORD_0": 15
          },
          "indices": 16,
          "material": 1,
          "mode": 4
        }
      ]
    },
    {
      "primitives": [
        {
          "attributes": {
            "NORMAL": 18,
            "POSITION": 17,
            "TANGENT": 19,
            "TEXCOORD_0": 20
          },
          "indices": 21,
          "material": 2,
          "mode": 4
        }
      ]
    },
    {
      "primitives": [
        {
          "attributes": {
            "NORMAL": 23,
            "POSITION": 22,
            "TANGENT": 24,
            "TEXCOORD_0": 25
          },
          "indices": 26,
          "material": 2,
          "mode": 4
        }
      ]
    },
    {
      "primitives": [
        {
          "attributes": {
            "NORMAL": 28,
            "POSITION": 27,
            "TANGENT": 29,
            "TEXCOORD_0": 30
          },
          "indices": 31,
          "material": 2,
          "mode": 4
        }
      ]
    }
  ],
  "nodes": [
    {
      "children": [
        1
      ],
      "name": "RootNode (gltf orientation matrix)",
      "rotation": [
        -0.70710678118654746,
        -0,
        -0,
        0.70710678118654757
      ]
    },
    {
      "children": [
        2
      ],
      "name": "RootNode (model correction matrix)"
    },
    {
      "children": [
        3,
        4,
        5,
        6,
        7,
        8,
        9
      ],
      "name": "BattleShipYamato.obj.cleaner.materialmerger.gles"
    },
    {
      "mesh": 0,
      "name": ""
    },
    {
      "mesh": 1,
      "name": ""
    },
    {
      "mesh": 2,
      "name": ""
    },
    {
      "mesh": 3,
      "name": ""
    },
    {
      "mesh": 4,
      "name": ""
    },
    {
      "mesh": 5,
      "name": ""
    },
    {
      "mesh": 6,
      "name": ""
    }
  ],
  "scene": 0,
  "scenes": [
    {
      "name": "OSG_Scene",
      "nodes": [
        0
      ]
    }
  ]
}

